<?xml version="1.0" encoding="UTF-8" standalone="no"?>
<svg width="246px" height="60px" viewBox="0 0 246 60" version="1.1" xmlns="http://www.w3.org/2000/svg" xmlns:xlink="http://www.w3.org/1999/xlink">
    <!-- Generator: Sketch 39 (31667) - http://www.bohemiancoding.com/sketch -->
    <title>logo</title>
    <desc>Created with Sketch.</desc>
    <defs>
        <rect id="path-1" x="0" y="0" width="290" height="70"></rect>
    </defs>
    <g id="Page-1-Copy" stroke="none" stroke-width="1" fill="none" fill-rule="evenodd">
        <g id="homepage_laag_2">
            <g id="logo" transform="translate(0.000000, -10.000000)">
                <g id="bg">
                    <mask id="mask-2" fill="white">
                        <use xlink:href="#path-1"></use>
                    </mask>
                    <g></g>
                    <path d="M-142,0 L244.56808,0 C244.56808,0 244.568085,32.3417969 219.183594,57.2480469 C194.949219,82.1425781 149.746032,100 149.746032,100 L-142,100 L-142,0 Z" id="red" fill="#D0021B" mask="url(#mask-2)"></path>
                    <polyline id="Fill-12" fill="#D0021B" mask="url(#mask-2)" points="172.338722 -13.6452577 175.725476 -13.1534518 179.033988 -12.5778155 182.336912 -12.0021791 185.645424 -11.2644703 188.864516 -10.5267615 192.089198 -9.70522223 195.230049 -8.88368292 198.365311 -7.90007123 201.34409 -6.91645954 204.31728 -5.84901732 207.212228 -4.78157509 210.101587 -3.63589102 212.828874 -2.40637641 218.115787 0.220313896 220.681001 1.69573143 220.51334 7.03294258 220.267437 12.2024926 219.770043 17.3720427 219.110576 22.2956898 218.367278 27.219337 217.372489 31.8914925 216.299458 36.5692367 215.058766 41.001078 213.656002 45.4329193 212.169407 49.6970995 210.598982 53.7992074 208.860895 57.8230734 207.044567 61.6792783 205.144408 65.5354832 203.160418 69.1457852 201.092598 72.7560872 218.529351 92.6127481 221.424299 88.0132457 224.151586 83.2572597 226.878873 78.3336125 229.354668 73.247893 231.752222 67.9945124 234.065944 62.5790594 236.133764 57.0015341 238.033923 51.2563476 239.766421 45.2652582 241.336847 39.195927 242.661369 32.8751042 243.818231 26.3977977 244.645359 19.7528301 245.304826 12.8563709 245.71839 5.80342797 245.880462 -1.33893418 241.918072 -4.12769686 237.70419 -6.832629 233.322647 -9.29724693 228.779032 -11.5942038 223.983925 -13.8073301 219.026745 -15.7801421 213.985735 -17.663535 208.698823 -19.3904441 203.328079 -20.9441035 197.873505 -22.3412792 192.25127 -23.6546243 186.550793 -24.8003084 180.766486 -25.7895088 174.898348 -26.6054594 168.951968 -27.2649263 163 -27.7567322 163.413564 -26.9351929 163.910959 -26.0354117 164.486595 -25.1300419 164.983989 -24.2302607 166.140851 -22.4251097 166.638246 -21.5197399 167.297712 -20.6199587 168.454574 -18.8148077 169.03021 -17.9932684 170.354733 -16.1881174 171.0142 -15.3665781 171.595425 -14.5450388 172.338722 -13.6452577"></polyline>
                </g>
                <g id="BW_WR-pc2_goud_zwart-Copy" transform="translate(22.000000, 19.000000)">
                    <path d="M46.7625116,20.1022326 L47.7772093,20.1022326 L47.988186,20.0896744 L48.2108837,20.0771163 L48.4335814,20.0653953 L48.6437209,20.0277209 L48.8546977,19.9917209 L49.0522791,19.9423256 L49.2381395,19.8803721 L49.4114419,19.8192558 L49.572186,19.7213023 L49.7212093,19.6225116 L49.8568372,19.512 L49.968186,19.3763721 L50.0552558,19.2290233 L50.1172093,19.0691163 L50.1540465,18.8849302 L50.1791628,18.688186 L50.1540465,18.4671628 L50.1172093,18.2704186 L50.0552558,18.0987907 L49.968186,17.9506047 L49.8693953,17.8283721 L49.7454884,17.7170233 L49.5973023,17.6316279 L49.4365581,17.5579535 L49.2632558,17.496 L49.0899535,17.4466047 L48.8915349,17.4097674 L48.6813953,17.3729302 L48.4704186,17.3612093 L48.2602791,17.3486512 L46.7625116,17.3486512 L46.7625116,20.1022326 L46.7625116,20.1022326 Z M46.7625116,25.6822326 L47.8391628,25.6822326 L48.0744186,25.6696744 L48.3222326,25.6696744 L48.5700465,25.6453953 L48.8053023,25.6211163 L49.0397209,25.5842791 L49.2632558,25.5466047 L49.4733953,25.4854884 L49.671814,25.411814 L49.8451163,25.3130233 L50.0184186,25.2025116 L50.1666047,25.0802791 L50.2905116,24.932093 L50.3893023,24.7604651 L50.463814,24.5762791 L50.5006512,24.3544186 L50.5257674,24.1208372 L50.5006512,23.8504186 L50.4512558,23.6293953 L50.3767442,23.4209302 L50.2779535,23.2484651 L50.1540465,23.1011163 L50.0058605,22.9654884 L49.8451163,22.8549767 L49.6592558,22.7695814 L49.4608372,22.6950698 L49.2506977,22.6339535 L49.028,22.5971163 L48.8053023,22.5602791 L48.5700465,22.536 L48.3347907,22.5234419 L46.7625116,22.5234419 L46.7625116,25.6822326 L46.7625116,25.6822326 Z M43.1725581,14.8043721 L49.3863256,14.8043721 L49.8451163,14.8169302 L50.2905116,14.8537674 L50.7233488,14.9148837 L51.1193488,15.0011163 L51.516186,15.124186 L51.8753488,15.2715349 L52.2093953,15.4314419 L52.5183256,15.639907 L52.7912558,15.8609302 L53.0382326,16.1070698 L53.2492093,16.3900465 L53.4350698,16.6973023 L53.5706977,17.0288372 L53.6820465,17.3980465 L53.744,17.7789767 L53.7691163,18.2093023 L53.7565581,18.504 L53.7197209,18.7986977 L53.6694884,19.0691163 L53.6075349,19.327814 L53.5213023,19.5731163 L53.4099535,19.8066977 L53.2860465,20.016 L53.1378605,20.2127442 L52.9762791,20.3969302 L52.8029767,20.5685581 L52.6053953,20.7167442 L52.3944186,20.864093 L52.1717209,20.9988837 L51.9247442,21.1219535 L51.6643721,21.2324651 L51.3922791,21.3312558 L51.3922791,21.368093 L51.7137674,21.4417674 L52.0235349,21.528 L52.308186,21.6259535 L52.5677209,21.7490233 L52.8155349,21.883814 L53.0382326,22.032 L53.2366512,22.1910698 L53.4225116,22.376093 L53.5832558,22.5602791 L53.7197209,22.7695814 L53.8427907,22.9906047 L53.9424186,23.224186 L54.016093,23.4820465 L54.0663256,23.7524651 L54.1031628,24.0354419 L54.1157209,24.3426977 L54.0780465,24.907814 L53.9792558,25.4243721 L53.8310698,25.8789767 L53.6326512,26.284186 L53.3731163,26.6533953 L53.0876279,26.9606512 L52.7535814,27.2427907 L52.3944186,27.4763721 L51.9984186,27.6613953 L51.5781395,27.8204651 L51.1444651,27.956093 L50.6990698,28.0548837 L50.2411163,28.1285581 L49.7831628,28.1771163 L49.3126512,28.2022326 L48.8664186,28.2139535 L43.1725581,28.2139535 L43.1725581,14.8043721 L43.1725581,14.8043721 Z" id="Fill-1" fill="#FFFFFF"></path>
                    <path d="M62.224093,20.3726512 L63.1768372,20.3726512 L63.3869767,20.360093 L63.6105116,20.360093 L63.8449302,20.3475349 L64.0684651,20.335814 L64.2911628,20.3106977 L64.5013023,20.2738605 L64.7114419,20.2244651 L64.9098605,20.1633488 L65.0957209,20.0771163 L65.2690233,19.9666047 L65.4172093,19.8435349 L65.5411163,19.696186 L65.6524651,19.5245581 L65.7269767,19.3152558 L65.7763721,19.0816744 L65.8014884,18.823814 L65.7763721,18.5902326 L65.7395349,18.3934884 L65.6650233,18.2210233 L65.5779535,18.0611163 L65.4666047,17.9137674 L65.3309767,17.8032558 L65.1693953,17.6927442 L64.996093,17.6065116 L64.8110698,17.5328372 L64.600093,17.4834419 L64.3899535,17.4348837 L64.1546977,17.3980465 L63.9194419,17.3729302 L63.6716279,17.3486512 L62.224093,17.3486512 L62.224093,20.3726512 L62.224093,20.3726512 Z M58.6215814,14.8043721 L65.0463256,14.8043721 L65.4791628,14.8169302 L65.9128372,14.8537674 L66.3331163,14.9148837 L66.7291163,15.0011163 L67.1133953,15.1116279 L67.4725581,15.2589767 L67.8066047,15.4314419 L68.1163721,15.628186 L68.4010233,15.8492093 L68.648,16.0945116 L68.8706977,16.3657674 L69.0565581,16.672186 L69.2055814,17.0045581 L69.3043721,17.3729302 L69.3788837,17.7538605 L69.4031628,18.184186 L69.3906047,18.504 L69.3537674,18.823814 L69.3043721,19.1185116 L69.2424186,19.4014884 L69.1436279,19.671907 L69.0322791,19.9297674 L68.9083721,20.1633488 L68.7593488,20.3843721 L68.5860465,20.5936744 L68.3884651,20.7778605 L68.1783256,20.9503256 L67.9430698,21.1093953 L67.6952558,21.2450233 L67.4106047,21.368093 L67.1133953,21.4786047 L66.8036279,21.5648372 L66.8036279,21.6016744 L67.0020465,21.6627907 L67.187907,21.7490233 L67.3486512,21.8469767 L67.4968372,21.9574884 L67.6333023,22.0931163 L67.7446512,22.2404651 L67.856,22.4003721 L67.9547907,22.5845581 L68.0418605,22.7813023 L68.128093,22.9906047 L68.2151628,23.2116279 L68.3013953,23.4577674 L68.4010233,23.7030698 L68.499814,23.9734884 L68.6111628,24.2564651 L68.7350698,24.5637209 L70.0469767,28.2139535 L66.2837209,28.2139535 L65.516,25.7927442 L65.367814,25.3749767 L65.243907,25.0057674 L65.12,24.6616744 L64.9843721,24.3669767 L64.8604651,24.0965581 L64.7365581,23.8629767 L64.600093,23.6662326 L64.4644651,23.4820465 L64.3154419,23.3346977 L64.1672558,23.2116279 L64.0065116,23.1136744 L63.8332093,23.0391628 L63.6347907,22.9780465 L63.4363721,22.9412093 L63.2136744,22.9169302 L62.224093,22.9169302 L62.224093,28.2139535 L58.6215814,28.2139535 L58.6215814,14.8043721 L58.6215814,14.8043721 Z" id="Fill-3" fill="#FFFFFF"></path>
                    <path d="M80.0122791,17.5696744 L79.9746047,17.5696744 L78.2298605,22.8181395 L81.6213953,22.8181395 L80.0122791,17.5696744 L80.0122791,17.5696744 Z M77.8087442,14.8043721 L82.2275349,14.8043721 L87.4148837,28.2139535 L83.4783256,28.2139535 L82.4753488,25.3506977 L77.400186,25.3506977 L76.3352558,28.2139535 L72.6716279,28.2139535 L77.8087442,14.8043721 L77.8087442,14.8043721 Z" id="Fill-4" fill="#FFFFFF"></path>
                    <polyline id="Fill-5" fill="#FFFFFF" points="91.0416744 14.8043721 95.6346047 14.8043721 100.202419 23.9123721 100.239256 23.9123721 100.177302 14.8043721 103.470047 14.8043721 103.470047 28.2139535 99.0010233 28.2139535 94.2724651 19.0448372 94.2356279 19.0448372 94.3469767 28.2139535 91.0416744 28.2139535 91.0416744 14.8043721"></polyline>
                    <path d="M112.284186,25.5717209 L113.670605,25.5717209 L114.152837,25.5466047 L114.623349,25.4980465 L115.057023,25.4243721 L115.465581,25.3013023 L115.836465,25.1656744 L116.18307,24.9814884 L116.492837,24.772186 L116.777488,24.5394419 L117.037023,24.2690233 L117.248,23.9617674 L117.445581,23.6293953 L117.594605,23.2610233 L117.718512,22.8675349 L117.804744,22.4372093 L117.85414,21.9826047 L117.879256,21.5028837 L117.85414,21.0114419 L117.804744,20.5568372 L117.705953,20.1390698 L117.582047,19.7455814 L117.43386,19.3763721 L117.235442,19.0448372 L117.012744,18.7501395 L116.752372,18.4797209 L116.467721,18.2335814 L116.158791,18.0242791 L115.812186,17.8526512 L115.427907,17.7053023 L115.031907,17.5947907 L114.59907,17.5202791 L114.141116,17.4717209 L113.670605,17.4591628 L112.284186,17.4591628 L112.284186,25.5717209 L112.284186,25.5717209 Z M108.681674,14.8043721 L113.596093,14.8043721 L114.450047,14.8169302 L115.279721,14.8654884 L116.071721,14.9642791 L116.826884,15.1116279 L117.520093,15.295814 L118.189023,15.5293953 L118.795163,15.824093 L119.351907,16.1690233 L119.847535,16.5867907 L120.29293,17.0539535 L120.664651,17.6065116 L120.98614,18.2210233 L121.246512,18.8974884 L121.419814,19.671907 L121.531163,20.52 L121.580558,21.4543256 L121.531163,22.3509767 L121.419814,23.1747907 L121.233953,23.9366512 L120.973581,24.6248372 L120.652093,25.2393488 L120.268651,25.7927442 L119.80986,26.284186 L119.31507,26.7145116 L118.745767,27.0837209 L118.138791,27.3909767 L117.483256,27.6488372 L116.777488,27.8581395 L116.034884,28.0172093 L115.254605,28.1285581 L114.437488,28.1896744 L113.596093,28.2139535 L108.681674,28.2139535 L108.681674,14.8043721 L108.681674,14.8043721 Z" id="Fill-6" fill="#FFFFFF"></path>
                    <polyline id="Fill-7" fill="#FFFFFF" points="124.786233 14.8043721 128.450698 14.8043721 130.208837 25.1045581 130.245674 25.1045581 132.06493 14.8043721 136.633581 14.8043721 138.527349 25.1045581 138.564186 25.1045581 140.322326 14.8043721 143.837767 14.8043721 140.804558 28.2139535 136.187349 28.2139535 134.268465 17.9137674 134.231628 17.9137674 132.449209 28.2139535 127.782605 28.2139535 124.786233 14.8043721"></polyline>
                    <polyline id="Fill-8" fill="#FFFFFF" points="147.687256 14.8043721 157.218884 14.8043721 157.218884 17.3486512 151.289767 17.3486512 151.289767 20.1022326 156.884837 20.1022326 156.884837 22.6339535 151.289767 22.6339535 151.289767 25.6822326 157.42986 25.6822326 157.42986 28.2139535 147.687256 28.2139535 147.687256 14.8043721"></polyline>
                    <polyline id="Fill-9" fill="#FFFFFF" points="162.23293 14.8043721 171.764558 14.8043721 171.764558 17.3486512 165.847163 17.3486512 165.847163 20.1022326 171.442233 20.1022326 171.442233 22.6339535 165.847163 22.6339535 165.847163 25.6822326 171.974698 25.6822326 171.974698 28.2139535 162.23293 28.2139535 162.23293 14.8043721"></polyline>
                    <path d="M180.392837,20.3726512 L181.345581,20.3726512 L181.556558,20.360093 L181.779256,20.360093 L182.014512,20.3475349 L182.237209,20.335814 L182.459907,20.3106977 L182.682605,20.2738605 L182.892744,20.2244651 L183.091163,20.1633488 L183.277023,20.0771163 L183.450326,19.9666047 L183.598512,19.8435349 L183.722419,19.696186 L183.833767,19.5245581 L183.908279,19.3152558 L183.957674,19.0816744 L183.982791,18.823814 L183.957674,18.5902326 L183.920837,18.3934884 L183.846326,18.2210233 L183.759256,18.0611163 L183.636186,17.9137674 L183.499721,17.8032558 L183.350698,17.6927442 L183.177395,17.6065116 L182.979814,17.5328372 L182.781395,17.4834419 L182.558698,17.4348837 L182.336,17.3980465 L182.088186,17.3729302 L181.85293,17.3486512 L180.392837,17.3486512 L180.392837,20.3726512 L180.392837,20.3726512 Z M176.802884,14.8043721 L183.227628,14.8043721 L183.660465,14.8169302 L184.09414,14.8537674 L184.514419,14.9148837 L184.910419,15.0011163 L185.294698,15.1116279 L185.65386,15.2589767 L185.987907,15.4314419 L186.297674,15.628186 L186.569767,15.8492093 L186.829302,16.0945116 L187.040279,16.3657674 L187.225302,16.672186 L187.374326,17.0045581 L187.473116,17.3729302 L187.547628,17.7538605 L187.571907,18.184186 L187.560186,18.504 L187.522512,18.823814 L187.473116,19.1185116 L187.411163,19.4014884 L187.312372,19.671907 L187.213581,19.9297674 L187.077116,20.1633488 L186.92893,20.3843721 L186.755628,20.5936744 L186.569767,20.7778605 L186.34707,20.9503256 L186.124372,21.1093953 L185.864,21.2450233 L185.591907,21.368093 L185.294698,21.4786047 L184.98493,21.5648372 L184.98493,21.6016744 L185.183349,21.6627907 L185.369209,21.7490233 L185.529953,21.8469767 L185.67814,21.9574884 L185.802047,22.0931163 L185.913395,22.2404651 L186.024744,22.4003721 L186.124372,22.5845581 L186.210605,22.7813023 L186.297674,22.9906047 L186.383907,23.2116279 L186.470977,23.4577674 L186.569767,23.7030698 L186.668558,23.9734884 L186.779907,24.2564651 L186.903814,24.5637209 L188.215721,28.2139535 L184.465023,28.2139535 L183.697302,25.7927442 L183.549116,25.3749767 L183.425209,25.0057674 L183.289581,24.6616744 L183.165674,24.3669767 L183.041767,24.0965581 L182.905302,23.8629767 L182.781395,23.6662326 L182.645767,23.4820465 L182.496744,23.3346977 L182.336,23.2116279 L182.175256,23.1136744 L182.001953,23.0391628 L181.803535,22.9780465 L181.605953,22.9412093 L181.383256,22.9169302 L180.392837,22.9169302 L180.392837,28.2139535 L176.802884,28.2139535 L176.802884,14.8043721 L176.802884,14.8043721 Z" id="Fill-10" fill="#FFFFFF"></path>
                    <polyline id="Fill-11" fill="#C9AF53" points="13.4891163 20.9746047 13.2664186 20.4580465 13.0186047 19.9666047 12.7465116 19.4868837 12.152093 18.5533953 11.8423256 18.0987907 11.5208372 17.6433488 11.2110698 17.2013023 10.8895814 16.7584186 10.5923721 16.328093 10.2951628 15.8860465 10.0230698 15.4557209 9.76269767 15.0128372 9.52744186 14.5833488 9.32986047 14.1404651 9.16911628 13.6984186 9.02009302 13.7352558 8.87190698 13.783814 8.73544186 13.8332093 8.58725581 13.8700465 8.4507907 13.9194419 8.31432558 13.9805581 8.17869767 14.0299535 7.90576744 14.127907 7.77013953 14.1898605 7.64623256 14.2392558 7.52232558 14.3003721 7.38586047 14.3497674 7.2627907 14.4108837 7.13888372 14.472 7.02753488 14.5339535 7.11376744 15.6524651 7.2627907 16.7341395 7.48548837 17.7538605 7.7575814 18.7375814 8.07906977 19.6593488 8.46334884 20.5325581 8.87190698 21.368093 9.31730233 22.1425116 9.80037209 22.8675349 10.2951628 23.5557209 10.8150698 24.1945116 11.3475349 24.7847442 11.88 25.3255814 12.424186 25.8178605 12.9566512 26.2724651 13.4891163 26.6902326 13.6373023 26.2356279 13.7612093 25.8053023 13.8725581 25.3875349 13.9470698 24.9814884 14.0090233 24.6005581 14.0458605 24.232186 14.0709767 23.8755349 14.0709767 23.5314419 14.0458605 23.1873488 14.0090233 22.8549767 13.9596279 22.536 13.8106047 21.8963721 13.711814 21.5891163 13.4891163 20.9746047"></polyline>
                    <polyline id="Fill-12" fill="#C9AF53" points="19.5546977 10.244093 20.0620465 10.3177674 20.5576744 10.404 21.0524651 10.4902326 21.548093 10.6007442 22.0303256 10.7112558 22.5133953 10.8343256 22.983907 10.9573953 23.4535814 11.1047442 23.899814 11.252093 24.3452093 11.412 24.7788837 11.571907 25.2117209 11.7435349 25.6202791 11.9277209 26.4122791 12.3212093 26.7965581 12.5422326 26.7714419 13.3417674 26.7346047 14.116186 26.660093 14.8906047 26.5613023 15.628186 26.4499535 16.3657674 26.3009302 17.0656744 26.140186 17.7664186 25.9543256 18.4303256 25.744186 19.0942326 25.5214884 19.7330233 25.2862326 20.3475349 25.0258605 20.9503256 24.7537674 21.528 24.4691163 22.1056744 24.171907 22.6465116 23.8621395 23.1873488 26.4742326 26.1619535 26.907907 25.4729302 27.3164651 24.7604651 27.7250233 24.0228837 28.095907 23.2610233 28.4550698 22.4740465 28.8016744 21.6627907 29.1114419 20.8272558 29.396093 19.9666047 29.6556279 19.0691163 29.8908837 18.159907 30.0893023 17.2130233 30.2626047 16.2426977 30.3865116 15.2472558 30.4853023 14.2141395 30.5472558 13.1575814 30.5715349 12.0876279 29.9779535 11.6698605 29.3466977 11.2646512 28.6903256 10.8954419 28.0096744 10.5513488 27.2913488 10.219814 26.5487442 9.92427907 25.7935814 9.64213953 25.0015814 9.38344186 24.1970233 9.15069767 23.379907 8.94139535 22.5376744 8.74465116 21.6837209 8.57302326 20.8172093 8.42483721 19.9381395 8.30260465 19.0473488 8.20381395 18.1557209 8.13013953 18.2176744 8.2532093 18.292186 8.388 18.3784186 8.52362791 18.4529302 8.6584186 18.6262326 8.92883721 18.7007442 9.06446512 18.7995349 9.19925581 18.9728372 9.46967442 19.0590698 9.59274419 19.2574884 9.86316279 19.3562791 9.98623256 19.4433488 10.1093023 19.5546977 10.244093"></polyline>
                    <polyline id="Fill-13" fill="#C9AF53" points="4.04372093 12.5422326 4.05627907 13.3417674 4.09311628 14.116186 4.16762791 14.8906047 4.25469767 15.628186 4.37776744 16.3657674 4.51423256 17.0656744 4.67497674 17.7664186 4.86083721 18.4303256 5.07181395 19.0942326 5.29451163 19.7330233 5.52976744 20.3475349 5.78930233 20.9503256 6.06139535 21.528 6.35860465 22.1056744 6.65581395 22.6465116 6.97730233 23.1873488 4.35348837 26.1619535 3.90809302 25.4729302 3.49953488 24.7604651 3.09097674 24.0228837 2.71925581 23.2610233 2.36009302 22.4740465 2.01348837 21.6627907 1.70455814 20.8272558 1.41990698 19.9666047 1.15953488 19.0691163 0.92427907 18.159907 0.726697674 17.2130233 0.565116279 16.2426977 0.429488372 15.2472558 0.330697674 14.2141395 0.268744186 13.1575814 0.256186047 12.0876279 0.701581395 11.7686512 1.15953488 11.4613953 1.64260465 11.1658605 2.14995349 10.8837209 2.66986047 10.6250233 3.20232558 10.3671628 3.75906977 10.1335814 4.31665116 9.9 4.89851163 9.69153488 5.49209302 9.4947907 6.09906977 9.29804651 6.71776744 9.1255814 7.33646512 8.96567442 7.98027907 8.81832558 8.62409302 8.68353488 9.28046512 8.56046512 9.18083721 8.83088372 9.144 8.97823256 9.10716279 9.11302326 9.06948837 9.24865116 9.03265116 9.38344186 8.99581395 9.51906977 8.97069767 9.65386047 8.9464186 9.78948837 8.89618605 10.059907 8.87190698 10.1829767 8.85934884 10.3177674 8.83423256 10.563907 8.82251163 10.6986977 8.48762791 10.7723721 8.1535814 10.8586047 7.83209302 10.9573953 7.50976744 11.0553488 7.18827907 11.1533023 6.87851163 11.252093 6.5695814 11.3626047 6.27237209 11.4731163 5.97516279 11.596186 5.67795349 11.7192558 5.39330233 11.8423256 5.10865116 11.9771163 4.83655814 12.1127442 4.29153488 12.3831628 4.04372093 12.5422326"></polyline>
                    <polyline id="Fill-14" fill="#C9AF53" points="15.408 35.3553488 15.0362791 35.2205581 14.6402791 35.0606512 14.2191628 34.863907 13.7737674 34.6546047 13.315814 34.4210233 12.8327442 34.1631628 12.3505116 33.8684651 11.8423256 33.5612093 11.3224186 33.2171163 10.7907907 32.847907 10.2583256 32.4544186 9.71330233 32.0366512 9.16911628 31.5946047 8.62409302 31.1148837 8.07906977 30.6108837 7.54744186 30.0951628 10.1344186 27.1448372 10.4935814 27.4889302 11.2110698 28.1285581 11.5702326 28.4232558 11.9168372 28.7179535 12.276 28.9766512 12.6226047 29.2345116 12.9692093 29.479814 13.3032558 29.7016744 13.6247442 29.9101395 13.9470698 30.1068837 14.2568372 30.291907 14.5657674 30.4509767 14.8504186 30.5983256 15.1350698 30.7465116 15.408 30.8695814 15.6675349 30.7465116 15.952186 30.5983256 16.2493953 30.4509767 16.5466047 30.291907 16.8563721 30.1068837 17.1778605 29.9101395 17.511907 29.7016744 17.8459535 29.479814 18.1925581 29.2345116 18.54 28.9766512 18.8983256 28.7179535 19.2449302 28.4232558 19.604093 28.1285581 20.3224186 27.4889302 20.6933023 27.1448372 23.2811163 30.0951628 22.736093 30.6108837 22.1910698 31.1148837 21.6468837 31.5946047 21.1018605 32.0366512 20.5576744 32.4544186 20.0252093 32.847907 19.4927442 33.2171163 18.9728372 33.5612093 18.4654884 33.8684651 17.9698605 34.1631628 17.4993488 34.4210233 17.0413953 34.6546047 16.596 34.863907 16.1748837 35.0606512 15.7788837 35.2205581 15.408 35.3553488"></polyline>
                    <polyline id="Fill-15" fill="#C9AF53" points="19.3562791 20.9503256 19.728 20.4094884 20.0620465 19.8686512 20.3349767 19.3395349 20.5819535 18.823814 20.7803721 18.3072558 20.9536744 17.8032558 21.0775814 17.311814 21.1763721 16.8203721 21.2508837 16.3532093 21.2877209 15.8986047 21.3128372 15.4557209 21.3128372 15.0379535 21.2877209 14.631907 21.2508837 14.2509767 21.2014884 13.8826047 21.1512558 13.5502326 21.3245581 13.5996279 21.4978605 13.6490233 21.8444651 13.7469767 22.1910698 13.8700465 22.3643721 13.9194419 22.5259535 13.9805581 22.6992558 14.0425116 22.86 14.116186 23.0207442 14.1773023 23.1814884 14.2392558 23.3430698 14.3129302 23.4912558 14.3866047 23.6394419 14.4602791 23.800186 14.5339535 23.6771163 15.9354419 23.4535814 17.2624186 23.132093 18.504 22.736093 19.671907 22.2530233 20.7653023 21.7205581 21.7733023 21.1395349 22.720186 20.5074419 23.58 19.851907 24.3669767 19.1829767 25.0802791 18.5023256 25.7316279 17.8342326 26.2967442 17.1778605 26.8007442 16.5466047 27.2310698 15.952186 27.5994419 15.408 27.9066977 15.3334884 27.8698605 15.2589767 27.8330233 15.1853023 27.7836279 15.1107907 27.7467907 15.0362791 27.7099535 14.9617674 27.6613953 14.888093 27.6245581 14.8010233 27.5751628 14.7265116 27.5257674 14.6402791 27.4763721 14.5657674 27.427814 14.4795349 27.3784186 14.4050233 27.3290233 14.3187907 27.267907 14.2317209 27.2185116 14.1572093 27.1691163 14.9500465 26.0631628 15.5436279 24.9689302 15.952186 23.888093 16.2 22.8432558 16.3113488 21.8352558 16.2862326 20.8515349 16.1506047 19.9172093 15.9404651 19.0448372 15.6549767 18.2093023 15.3334884 17.4466047 14.9743256 16.7584186 14.6151628 16.1313488 14.2568372 15.5913488 13.9470698 15.135907 13.6749767 14.7675349 13.4891163 14.5096744 13.3283721 14.287814 13.1667907 14.0542326 13.0060465 13.8089302 12.8453023 13.5502326 12.672 13.2923721 12.5112558 13.0219535 12.3622326 12.7389767 12.2014884 12.4568372 12.0533023 12.1613023 11.7803721 11.571907 11.6690233 11.2763721 11.5451163 10.9816744 11.4463256 10.6869767 11.360093 10.3797209 11.2981395 10.0967442 11.1985116 9.60530233 11.1248372 9.10130233 11.0871628 8.56046512 11.0871628 8.01962791 11.1248372 7.44195349 11.1985116 6.86427907 11.3224186 6.26148837 11.4957209 5.64697674 11.7309767 5.00818605 12.0156279 4.36855814 12.3505116 3.7172093 12.7707907 3.05330233 13.2413023 2.37767442 13.7988837 1.7012093 14.4175814 1.01302326 15.1350698 0.324837209 15.408 0.435348837 15.0613953 1.07497674 14.7767442 1.68948837 14.5414884 2.27972093 14.3430698 2.83227907 14.1823256 3.36139535 14.0584186 3.87711628 13.9713488 4.35683721 13.9345116 4.83572093 13.9102326 5.27860465 13.9219535 5.72065116 13.9596279 6.15097674 14.0333023 6.58130233 14.1203721 6.98651163 14.2317209 7.40511628 14.3556279 7.82288372 14.503814 8.24065116 14.6896744 8.69525581 14.9249302 9.18669767 15.2095814 9.67897674 15.5193488 10.1946977 15.8533953 10.723814 16.2125581 11.2646512 16.5834419 11.8054884 16.9551628 12.3706047 17.3268837 12.924 17.6852093 13.4891163 18.0192558 14.0542326 18.3415814 14.620186 18.6387907 15.1853023 18.8857674 15.7504186 19.084186 16.3163721 19.2449302 16.8689302 19.2826047 17.0782326 19.3194419 17.2992558 19.3939535 17.7664186 19.4065116 18 19.4307907 18.2335814 19.4307907 18.9837209 19.4182326 19.2415814 19.3939535 19.512 19.3562791 19.7698605 19.3194419 20.0402791 19.2700465 20.3106977 19.1461395 20.875814 19.3562791 20.9503256"></polyline>
                </g>
            </g>
        </g>
    </g>
</svg>